<svg version="1.1" id="Layer_1" xmlns:x="ns_extend;" xmlns:i="ns_ai;" xmlns:graph="ns_graphs;" xmlns="http://www.w3.org/2000/svg" xmlns:xlink="http://www.w3.org/1999/xlink" x="0px" y="0px" viewBox="0 0 143.5 45.8" style="enable-background:new 0 0 143.5 45.8;" xml:space="preserve">
 <style type="text/css">
  .st0{fill:#77777A;}
	.st1{fill:#DB1E35;}
 </style>
 <metadata>
  <sfw xmlns="ns_sfw;">
   <slices>
   </slices>
   <sliceSourceBounds bottomLeftOrigin="true" height="45.8" width="143.5" x="128.5" y="-223.1">
   </sliceSourceBounds>
  </sfw>
 </metadata>
 <g>
  <path class="st0" d="M76.7,4.2l-3.1,1.9c-1-1.6-2.6-2.5-4.7-2.5c-3.3,0-5.7,2.4-5.7,5.9c0,3.6,2.5,5.9,5.7,5.9c2,0,3.6-0.9,4.7-2.5
		l2.9,2.1c-1.6,2.3-4.3,3.8-7.6,3.8c-5.5,0-9.4-3.9-9.4-9.3s3.9-9.3,9.4-9.3C72.3,0.2,75.2,1.7,76.7,4.2">
  </path>
  <path class="st0" d="M90.3,12.3c0,0.4,0,0.8-0.1,1.1h-8.8c0.4,1.8,1.6,2.6,3.2,2.6c1.1,0,2.2-0.4,3.1-1.2l2,2.2
		c-1.4,1.3-3.2,1.9-5.3,1.9c-3.8,0-6.5-2.6-6.5-6.5c0-3.9,2.6-6.6,6.3-6.6C87.9,5.7,90.3,8.4,90.3,12.3 M81.4,11.1H87
		c-0.3-1.6-1.3-2.5-2.7-2.5C82.7,8.6,81.7,9.6,81.4,11.1">
  </path>
  <path class="st0" d="M101.7,7.4V0h3.3v18.5h-3.3v-1.4c-0.8,1-2,1.7-3.7,1.7c-3.4,0-6-2.8-6-6.6c0-3.7,2.6-6.6,6-6.6
		C99.7,5.7,100.9,6.4,101.7,7.4 M95.4,12.3c0,1.9,1.2,3.4,3.2,3.4c1.9,0,3.2-1.5,3.2-3.4c0-2-1.3-3.4-3.2-3.4
		C96.7,8.8,95.4,10.4,95.4,12.3">
  </path>
  <path class="st0" d="M120.2,18.5h-3.3v-1.4c-0.8,1-2,1.7-3.7,1.7c-3.4,0-6-2.8-6-6.6c0-3.7,2.6-6.6,6-6.6c1.7,0,2.9,0.7,3.7,1.7
		V6.1h3.3 M110.6,12.3c0,1.9,1.2,3.4,3.2,3.4c1.9,0,3.2-1.5,3.2-3.4c0-2-1.3-3.4-3.2-3.4C111.8,8.8,110.6,10.4,110.6,12.3">
  </path>
  <path class="st0" d="M131.5,6L131,9.3c-0.6-0.2-1.3-0.4-2-0.4c-1.6,0-2.6,1-2.6,2.8v6.8H123V6.1h3.3v1.4c0.8-1.2,2-1.7,3.5-1.7
		C130.5,5.7,131.1,5.8,131.5,6">
  </path>
  <path class="st0" d="M142,9.5c-1-0.5-2.6-1-4-1c-1.3,0-1.9,0.5-1.9,1.1c0,0.7,0.9,0.9,2,1.1l1.1,0.2c2.7,0.4,4.2,1.6,4.2,3.7
		c0,2.6-2.1,4.2-5.7,4.2c-1.7,0-3.9-0.3-5.5-1.5l1.3-2.5c1.1,0.7,2.4,1.2,4.2,1.2c1.6,0,2.3-0.4,2.3-1.2c0-0.6-0.6-0.9-2.1-1.1
		l-1-0.1c-2.9-0.4-4.3-1.7-4.3-3.8c0-2.6,2-4.1,5.3-4.1c2,0,3.5,0.4,5.2,1.2">
  </path>
  <path class="st0" d="M85.5,28.1c-1.4-0.9-3.1-1.5-5.1-1.5c-2,0-3.4,0.8-3.4,2.2c0,1.3,1.6,1.7,3.7,2.1l1,0.2c3.2,0.5,5.7,1.9,5.7,5
		c0,4-3.5,5.9-7.4,5.9c-2.7,0-5.7-0.8-7.6-2.4l1.9-2.9c1.3,1,3.4,1.9,5.7,1.9c2,0,3.5-0.8,3.5-2.2c0-1.2-1.3-1.7-3.8-2.1l-1.1-0.2
		c-3.2-0.5-5.5-1.9-5.5-5.2c0-3.8,3.3-5.7,7.2-5.7c2.5,0,4.6,0.6,6.9,1.9">
  </path>
  <path class="st0" d="M93.5,25.1c0,1.2-0.9,2.1-2.1,2.1c-1.2,0-2.1-0.9-2.1-2.1c0-1.2,0.9-2.2,2.1-2.2
		C92.6,22.9,93.5,23.8,93.5,25.1">
  </path>
  <rect x="89.7" y="29.1" class="st0" width="3.4" height="12.5">
  </rect>
  <path class="st0" d="M107.7,33.7v7.9h-3.4v-6.9c0-1.8-0.9-2.8-2.4-2.8c-1.4,0-2.6,0.9-2.6,2.8v6.8H96V29.1h3.3v1.5
		c0.9-1.3,2.2-1.8,3.7-1.8C105.7,28.8,107.7,30.8,107.7,33.7">
  </path>
  <path class="st0" d="M122.8,41.6h-3.3v-1.4c-0.8,1-2,1.7-3.7,1.7c-3.4,0-6-2.8-6-6.6c0-3.7,2.6-6.6,6-6.6c1.7,0,2.9,0.7,3.7,1.7
		v-1.4h3.3 M113.2,35.4c0,1.9,1.2,3.4,3.2,3.4c1.9,0,3.2-1.5,3.2-3.4c0-2-1.3-3.4-3.2-3.4C114.4,31.9,113.2,33.4,113.2,35.4">
  </path>
  <path class="st0" d="M129.4,25.1c0,1.2-0.9,2.1-2.1,2.1c-1.2,0-2.1-0.9-2.1-2.1c0-1.2,0.9-2.2,2.1-2.2
		C128.5,22.9,129.4,23.8,129.4,25.1">
  </path>
  <g>
   <rect x="125.6" y="29.1" class="st0" width="3.4" height="12.5">
   </rect>
   <path class="st1" d="M17.2,27.9c-2.5,0-5-1-6.9-2.9c-3.8-3.8-3.8-10,0-13.9c3.8-3.8,10-3.8,13.9,0l2.1,2.1l-2.9,2.9L21.3,14
			c-2.2-2.2-5.9-2.2-8.1,0c-2.2,2.2-2.2,5.9,0,8.1c1.1,1.1,2.5,1.7,4.1,1.7c1.5,0,3-0.6,4.1-1.7l2.9,2.9
			C22.3,27,19.7,27.9,17.2,27.9 M17.2,35.3c-4.6,0-8.9-1.8-12.2-5C1.8,27,0,22.7,0,18.1c0-4.6,1.8-8.9,5-12.2c3.3-3.3,7.6-5,12.2-5
			c4.6,0,8.9,1.8,12.2,5L31.5,8l-2.9,2.9l-2.1-2.1c-2.5-2.5-5.8-3.9-9.3-3.9c-3.5,0-6.8,1.4-9.3,3.9c-2.5,2.5-3.9,5.8-3.9,9.3
			s1.4,6.8,3.9,9.3c2.5,2.5,5.8,3.9,9.3,3.9c3.5,0,6.8-1.4,9.3-3.9l3.8-3.8l2.9,2.9l-3.8,3.8C26.2,33.5,21.8,35.3,17.2,35.3
			 M39.3,38.3c-2.5,0-5-1-6.9-2.9l-2.1-2.1l2.9-2.9l2.1,2.1c2.2,2.2,5.9,2.2,8.1,0c2.2-2.2,2.2-5.9,0-8.1c-2.2-2.2-5.9-2.2-8.1,0
			l-2.9-2.9c1.9-1.9,4.3-2.9,6.9-2.9c2.6,0,5.1,1,6.9,2.9c3.8,3.8,3.8,10,0,13.9C44.3,37.4,41.8,38.3,39.3,38.3 M39.3,45.8
			c-4.6,0-8.9-1.8-12.2-5l-2.1-2.1l2.9-2.9l2.1,2.1c2.5,2.5,5.8,3.9,9.3,3.9c3.5,0,6.8-1.4,9.3-3.9c2.5-2.5,3.9-5.8,3.9-9.3
			c0-3.5-1.4-6.8-3.9-9.3c-5.1-5.1-13.5-5.1-18.6,0L26.2,23l-2.9-2.9l3.8-3.8c6.7-6.7,17.7-6.7,24.4,0c3.3,3.3,5,7.6,5,12.2
			c0,4.6-1.8,8.9-5,12.2C48.2,44,43.9,45.8,39.3,45.8">
   </path>
  </g>
 </g>
</svg>